<?xml version="1.0" standalone="no"?>
<!DOCTYPE svg PUBLIC "-//W3C//DTD SVG 20010904//EN"
 "http://www.w3.org/TR/2001/REC-SVG-20010904/DTD/svg10.dtd">
<svg version="1.0" xmlns="http://www.w3.org/2000/svg"
 width="604.000000pt" height="599.000000pt" viewBox="0 0 604.000000 599.000000"
 preserveAspectRatio="xMidYMid meet">

<g transform="translate(0.000000,599.000000) scale(0.100000,-0.100000)"
fill="#000000" stroke="none">
<path d="M0 2995 c0 -2988 0 -2995 20 -2995 20 0 20 8 22 2987 l3 2988 2998 0
c1648 0 2997 3 2997 8 0 4 -1359 7 -3020 7 l-3020 0 0 -2995z"/>
<path d="M2770 5875 c-559 -53 -1055 -247 -1505 -588 -110 -84 -124 -96 -264
-232 -290 -282 -507 -604 -663 -985 -69 -168 -119 -334 -158 -530 -75 -375
-65 -843 27 -1220 18 -76 70 -256 82 -285 5 -11 26 -65 47 -120 42 -109 134
-300 186 -386 90 -145 118 -188 182 -273 307 -407 742 -752 1176 -930 36 -15
79 -33 95 -41 129 -58 414 -131 665 -171 151 -25 643 -24 785 0 376 64 616
140 916 291 650 327 1172 922 1417 1615 78 220 119 390 147 615 19 147 16 571
-4 725 -30 225 -86 445 -165 655 -43 114 -48 123 -128 283 -239 477 -624 892
-1083 1169 -448 270 -914 405 -1445 418 -96 2 -225 -2 -310 -10z m552 -40 c73
-9 156 -20 183 -25 209 -40 271 -55 425 -107 611 -205 1131 -605 1486 -1143
77 -116 195 -335 239 -440 10 -25 26 -63 36 -85 53 -125 113 -336 147 -520 40
-219 47 -296 47 -550 -1 -251 -9 -336 -51 -545 -131 -646 -479 -1220 -1005
-1655 -73 -61 -290 -215 -303 -215 -3 0 -24 -13 -48 -29 -104 -70 -461 -228
-613 -271 -22 -6 -62 -18 -90 -26 -107 -31 -291 -65 -460 -85 -153 -17 -590
-6 -735 19 -170 30 -194 35 -360 82 -267 76 -593 234 -836 404 -397 278 -753
701 -945 1124 -22 48 -44 96 -49 107 -57 118 -135 376 -175 575 -34 175 -59
522 -49 695 9 167 44 391 84 550 21 84 100 326 110 340 4 6 11 21 15 35 28 95
193 394 308 560 131 188 348 422 517 558 52 43 97 79 100 82 10 10 76 55 179
123 124 82 348 198 486 251 55 21 109 42 120 47 43 17 193 61 289 83 91 22
190 38 386 65 109 14 418 12 562 -4z"/>
<path d="M792 4514 c-29 -14 -68 -44 -87 -66 -70 -82 -66 12 -63 -1473 l3
-1340 29 -58 c32 -66 94 -118 161 -137 29 -8 661 -10 2210 -8 l2170 3 41 22
c23 12 60 43 81 67 77 88 73 2 73 1455 0 1149 -2 1300 -16 1354 -17 67 -57
129 -101 159 -75 51 67 48 -2272 48 l-2177 0 -52 -26z m4348 -111 c0 -13 -13
-26 -95 -98 -44 -39 -84 -75 -90 -81 -5 -6 -134 -121 -285 -255 -151 -134
-277 -246 -280 -249 -5 -6 -223 -200 -694 -619 -133 -118 -264 -235 -291 -260
-28 -25 -69 -62 -90 -81 -22 -19 -81 -72 -132 -117 -57 -51 -106 -86 -130 -93
-64 -19 -77 -11 -333 220 -58 52 -142 127 -185 165 -44 39 -107 95 -140 125
-65 59 -68 61 -280 249 -77 69 -144 129 -150 135 -5 6 -28 26 -50 45 -22 19
-76 67 -120 106 -44 40 -150 134 -235 211 -85 76 -195 175 -245 219 -49 45
-146 131 -213 191 -196 173 -202 179 -202 187 0 4 954 7 2120 7 1166 0 2120
-3 2120 -7z m-4229 -195 c63 -56 116 -104 119 -107 3 -3 41 -37 85 -76 44 -38
87 -76 96 -85 22 -21 59 -54 324 -290 291 -259 271 -241 460 -411 88 -79 186
-166 218 -194 32 -27 56 -55 55 -61 -2 -7 -115 -112 -253 -234 -137 -123 -286
-255 -330 -294 -43 -39 -104 -93 -135 -120 -30 -27 -89 -80 -130 -116 -236
-211 -313 -280 -385 -345 -221 -199 -247 -219 -256 -204 -10 16 -13 2597 -3
2623 3 9 10 16 14 16 4 0 59 -46 121 -102z m4359 -1213 c0 -717 -3 -1310 -6
-1319 -7 -17 -34 6 -338 279 -98 88 -224 201 -281 250 -157 139 -364 323 -425
379 -61 56 -159 143 -320 286 -58 51 -109 100 -114 108 -7 12 0 23 25 45 32
28 324 288 374 332 12 11 40 36 61 55 89 79 229 205 234 210 3 3 43 39 90 80
47 41 90 79 96 85 313 284 588 524 595 519 5 -3 9 -592 9 -1309z m-2868 -118
c7 -7 76 -68 153 -137 77 -68 158 -141 180 -161 121 -112 156 -136 216 -154
52 -16 69 -17 116 -7 31 6 71 20 89 29 18 10 129 104 246 210 117 105 225 201
241 213 l27 22 177 -159 c97 -87 202 -180 233 -208 32 -27 160 -142 286 -255
126 -112 245 -218 263 -235 34 -29 63 -55 246 -221 50 -44 129 -115 178 -158
48 -43 85 -82 82 -87 -8 -11 -4235 -12 -4235 -1 0 5 10 17 23 28 12 11 72 64
132 118 61 55 146 131 190 170 43 39 104 94 135 121 31 28 91 82 135 120 43
39 83 75 89 80 21 19 201 180 236 211 38 34 142 126 205 183 22 20 96 86 164
146 68 61 131 118 140 128 18 20 35 22 53 4z"/>
</g>
</svg>
